<?xml version="1.0" standalone="no"?>
<!DOCTYPE svg PUBLIC "-//W3C//DTD SVG 20010904//EN"
 "http://www.w3.org/TR/2001/REC-SVG-20010904/DTD/svg10.dtd">
<svg version="1.0" xmlns="http://www.w3.org/2000/svg"
 width="298.000000pt" height="169.000000pt" viewBox="0 0 298.000000 169.000000"
 preserveAspectRatio="xMidYMid meet">

<g transform="translate(0.000000,169.000000) scale(0.100000,-0.100000)"
fill="#000000" stroke="none">
<path d="M1470 1401 c-36 -4 -82 -15 -102 -25 -44 -21 -95 -75 -114 -123 -22
-51 -37 -317 -29 -515 9 -266 20 -311 87 -375 65 -63 81 -66 435 -76 423 -12
930 2 988 27 50 21 101 69 127 120 28 55 41 272 33 539 -8 252 -17 293 -83
357 -78 75 -57 73 -702 76 -316 1 -604 -1 -640 -5z m238 -218 l-3 -58 -57 -3
-58 -3 -2 -316 -3 -316 -55 0 -55 0 -3 317 -2 316 -60 0 -60 0 0 60 0 60 180
0 181 0 -3 -57z m492 -59 l0 -115 26 20 c38 30 94 28 124 -3 31 -34 39 -86 40
-271 0 -172 -9 -224 -42 -255 -29 -27 -87 -26 -122 1 -21 17 -26 18 -26 5 0
-13 -12 -16 -55 -16 l-55 0 0 375 0 375 55 0 55 0 0 -116z m489 -82 c56 -30
71 -71 71 -189 l0 -103 -95 0 -96 0 3 -81 c2 -65 7 -84 21 -93 30 -19 52 4 55
63 l3 51 55 0 54 0 0 -52 c0 -97 -50 -158 -137 -165 -66 -6 -111 19 -140 77
-21 41 -23 58 -23 215 0 145 3 176 19 212 34 74 135 105 210 65z m-882 -212
c1 -118 3 -221 3 -227 0 -18 31 -16 58 3 22 15 22 19 22 230 l0 214 50 0 50 0
0 -280 0 -280 -50 0 c-48 0 -50 1 -50 27 l0 26 -22 -20 c-57 -51 -115 -58
-147 -17 -20 25 -21 39 -21 286 l0 259 53 -3 52 -3 2 -215z"/>
<path d="M2207 943 c-4 -3 -7 -86 -7 -184 0 -152 2 -178 16 -183 28 -11 52 -6
58 10 10 27 7 324 -4 345 -10 18 -50 26 -63 12z"/>
<path d="M2576 935 c-3 -9 -6 -34 -6 -56 0 -39 0 -39 41 -39 l40 0 -3 53 c-3
50 -4 52 -34 55 -22 2 -33 -2 -38 -13z"/>
<path d="M148 1023 l65 -208 4 -162 4 -163 55 0 54 0 0 155 0 156 60 197 c34
108 63 205 66 215 5 15 -2 17 -50 17 -43 0 -56 -4 -60 -17 -2 -10 -19 -78 -36
-151 -18 -74 -36 -130 -40 -125 -4 4 -22 72 -41 150 l-34 143 -56 0 -56 0 65
-207z"/>
<path d="M541 1032 c-70 -35 -76 -53 -79 -250 -3 -146 0 -183 13 -220 23 -58
62 -82 138 -82 51 0 61 4 95 34 l37 34 3 196 c4 229 -3 256 -72 287 -52 23
-92 24 -135 1z m92 -85 c16 -11 17 -32 15 -192 l-3 -180 -28 -3 c-54 -6 -57 5
-57 189 0 139 3 170 16 183 19 19 35 20 57 3z"/>
<path d="M840 801 c0 -126 3 -243 6 -260 14 -68 90 -78 152 -22 l32 30 0 -30
c0 -28 1 -29 50 -29 l50 0 0 270 0 270 -50 0 -50 0 0 -208 c0 -193 -1 -210
-19 -226 -11 -10 -30 -16 -43 -14 l-23 3 -3 223 -2 222 -50 0 -50 0 0 -229z"/>
</g>
</svg>
